<?xml version="1.0" standalone="no"?>
<!DOCTYPE svg PUBLIC "-//W3C//DTD SVG 20010904//EN"
 "http://www.w3.org/TR/2001/REC-SVG-20010904/DTD/svg10.dtd">
<svg version="1.0" xmlns="http://www.w3.org/2000/svg"
 width="655.000000pt" height="1280.000000pt" viewBox="0 0 655.000000 1280.000000"
 preserveAspectRatio="xMidYMid meet">
<metadata>
Created by potrace 1.15, written by Peter Selinger 2001-2017
</metadata>
<g transform="translate(0.000000,1280.000000) scale(0.100000,-0.100000)"
fill="#000000" stroke="none">
<path d="M1695 12789 c-59 -8 -133 -23 -266 -53 -120 -27 -292 -108 -367 -171
-73 -63 -75 -77 -67 -435 l7 -315 -44 -55 c-24 -31 -67 -84 -96 -119 -54 -64
-64 -99 -27 -93 11 2 64 26 118 53 55 27 106 49 114 49 12 0 14 -10 8 -62 -4
-34 -11 -75 -16 -92 -12 -42 -11 -103 1 -127 8 -14 21 -19 54 -19 39 0 46 -4
70 -40 16 -24 45 -49 75 -64 27 -14 51 -34 54 -46 3 -13 13 -20 29 -20 13 0
33 -6 43 -14 17 -12 18 -23 12 -130 l-7 -116 47 -29 c69 -42 83 -57 83 -91 0
-35 35 -76 74 -86 15 -3 38 0 57 10 63 32 66 11 8 -54 -23 -25 -52 -63 -66
-85 -14 -22 -60 -76 -102 -121 -150 -158 -185 -203 -298 -375 -13 -19 -23 -40
-23 -46 0 -5 -13 -41 -28 -79 -16 -38 -34 -94 -41 -124 -30 -138 -46 -196 -55
-208 -5 -7 -24 -41 -43 -75 -82 -153 -115 -239 -133 -352 -6 -38 -18 -90 -26
-115 -46 -147 -55 -215 -70 -535 -17 -349 -14 -891 4 -960 16 -59 43 -174 51
-220 4 -23 11 -47 15 -54 5 -7 2 -35 -8 -65 -8 -28 -18 -68 -21 -88 -8 -53
-58 -102 -124 -122 -127 -37 -695 -309 -688 -328 7 -22 58 -9 162 42 262 128
526 240 525 222 -1 -4 -16 -29 -36 -57 -39 -56 -184 -274 -233 -350 -25 -39
-115 -214 -182 -357 -4 -9 -21 -56 -36 -105 -26 -82 -28 -99 -28 -263 0 -164
2 -181 28 -262 21 -65 36 -93 59 -113 49 -42 56 -20 23 82 -50 158 -55 184
-55 321 0 112 4 148 25 225 41 147 139 334 287 549 81 117 155 228 191 283 38
59 82 88 97 65 6 -8 13 -26 16 -40 3 -14 10 -42 16 -63 10 -31 9 -51 -5 -102
-12 -46 -17 -104 -17 -217 0 -120 -4 -168 -19 -223 -11 -38 -33 -126 -50 -195
l-30 -125 -1 -410 c-1 -230 3 -460 9 -525 7 -63 11 -189 9 -280 -1 -91 3 -221
10 -290 6 -69 14 -259 18 -423 l7 -298 44 -38 c41 -34 45 -44 72 -144 29 -112
51 -149 103 -171 28 -12 104 -93 180 -192 25 -33 54 -66 63 -74 9 -7 28 -37
42 -64 14 -28 41 -73 61 -100 20 -27 64 -102 98 -167 34 -64 88 -157 119 -206
32 -48 81 -124 110 -168 71 -109 155 -245 155 -250 0 -2 19 -37 43 -77 57 -98
104 -204 112 -253 6 -39 32 -110 61 -168 8 -16 14 -33 14 -37 0 -21 -92 -71
-153 -83 -82 -18 -227 -112 -227 -147 0 -19 58 -132 88 -171 15 -20 54 -71 87
-114 33 -43 66 -87 74 -99 8 -12 38 -46 67 -76 28 -30 62 -73 73 -95 12 -22
31 -54 42 -71 23 -37 46 -156 59 -307 l9 -107 -41 -85 c-54 -114 -59 -158 -22
-225 16 -29 42 -63 59 -76 40 -30 112 -49 157 -40 53 10 128 82 184 177 26 45
66 106 89 137 71 97 242 376 331 538 18 34 69 123 114 199 44 75 80 138 80
140 0 1 33 65 73 141 83 159 121 248 114 267 -2 7 -31 25 -63 41 -33 15 -84
47 -114 71 -100 77 -228 154 -364 219 -153 73 -193 105 -258 208 -63 99 -205
520 -218 646 -9 87 -46 248 -82 362 -17 56 -53 139 -148 345 -10 22 -23 58
-29 80 -6 22 -18 51 -28 65 -10 14 -20 54 -24 90 -5 50 -12 68 -28 78 -14 10
-21 25 -21 46 0 17 -10 49 -22 71 -20 36 -23 57 -26 205 -4 175 10 446 34 645
8 66 17 188 21 270 6 145 22 221 51 239 5 3 27 -9 48 -28 141 -119 464 -335
640 -428 111 -58 142 -70 206 -78 95 -12 315 2 354 22 16 8 108 56 205 106 97
51 182 92 190 92 28 0 115 48 147 81 19 19 44 57 57 84 26 59 56 88 107 104
53 17 83 85 57 132 -9 18 -3 29 50 84 34 35 61 72 61 83 0 11 26 45 59 77 l59
57 -14 45 -14 46 40 51 c22 28 66 85 97 126 206 271 391 472 448 486 32 8 41
1 83 -65 51 -80 132 -171 158 -177 16 -4 60 13 146 58 110 56 135 74 228 165
167 163 201 190 262 202 29 6 98 20 153 31 64 13 113 29 138 46 42 28 45 28
217 18 105 -6 121 -4 183 17 56 19 79 34 123 81 56 59 62 78 42 125 -19 42
-90 133 -140 178 -90 80 -286 225 -304 225 -4 0 -30 15 -58 34 -67 44 -211
116 -233 116 -20 0 -253 74 -298 95 -16 7 -55 25 -85 39 -30 13 -73 30 -95 37
-22 6 -52 18 -67 25 -14 8 -47 14 -73 14 -46 0 -47 0 -163 -121 -133 -137
-198 -219 -206 -260 -3 -16 -18 -39 -33 -51 -114 -96 -182 -190 -198 -280 -5
-28 -16 -43 -40 -58 -18 -11 -40 -32 -49 -45 -9 -14 -54 -49 -100 -78 -45 -28
-91 -58 -102 -64 -10 -7 -53 -34 -94 -60 -41 -25 -104 -70 -140 -99 -36 -28
-105 -73 -155 -99 -147 -78 -207 -116 -255 -160 -25 -22 -61 -47 -80 -55 -61
-24 -150 -91 -163 -121 -7 -16 -28 -37 -47 -47 -24 -12 -43 -33 -62 -72 -44
-87 -72 -129 -84 -130 -17 0 -173 175 -209 234 -17 29 -39 72 -49 95 -9 24
-28 57 -41 75 -13 17 -30 43 -38 58 -7 15 -39 64 -70 110 -88 128 -104 154
-112 179 -5 13 -19 40 -32 60 -20 30 -22 40 -13 66 7 19 10 129 8 304 l-3 274
-39 89 c-30 69 -56 107 -112 170 -41 45 -86 105 -101 135 -15 30 -57 86 -93
125 -71 77 -100 117 -100 140 0 7 -21 37 -46 65 -57 63 -64 89 -53 187 20 174
37 253 67 306 17 29 83 157 147 283 64 127 135 253 158 280 116 141 261 295
277 295 10 0 46 -29 80 -64 46 -48 84 -76 145 -106 90 -44 108 -61 149 -133
18 -31 49 -64 86 -90 33 -23 119 -86 192 -141 73 -54 147 -105 163 -113 17 -9
39 -23 50 -33 21 -18 180 -110 190 -110 26 0 336 -176 359 -203 6 -8 47 -29
91 -47 44 -18 105 -43 136 -56 31 -13 65 -24 76 -24 11 0 49 -23 84 -51 75
-60 128 -86 259 -124 70 -20 112 -40 160 -74 168 -120 236 -146 260 -102 16
30 13 36 -37 83 -27 25 -73 67 -103 96 -45 41 -53 53 -42 64 10 10 24 8 75
-10 284 -107 355 -122 377 -83 25 47 4 79 -65 101 -90 29 -188 92 -119 77 16
-3 73 -16 127 -27 54 -12 110 -20 125 -18 24 3 27 8 30 44 2 29 -2 44 -15 56
-27 23 -240 104 -297 113 -114 16 -88 25 69 23 l160 -3 3 29 c7 57 -100 129
-211 141 -83 10 -95 14 -102 34 -7 22 -108 95 -164 118 -20 9 -61 20 -91 25
-30 5 -69 11 -86 14 -22 4 -40 -1 -68 -19 -20 -14 -59 -33 -87 -42 -44 -15
-52 -15 -72 -2 -52 34 -365 201 -400 213 -62 22 -107 65 -249 236 -252 305
-285 336 -412 384 -79 30 -191 92 -233 129 -34 30 -17 32 34 5 21 -10 81 -31
134 -45 53 -14 164 -52 245 -84 222 -88 259 -99 499 -147 294 -59 490 -91 604
-100 84 -6 103 -11 193 -55 174 -86 187 -88 508 -100 269 -11 288 -10 339 7
34 12 62 30 75 47 20 27 20 30 5 56 l-17 29 112 12 c136 15 171 28 179 66 8
43 -7 70 -43 78 -18 3 -87 7 -154 7 -124 1 -231 15 -136 18 25 0 61 5 80 11
19 5 89 17 155 26 66 8 130 22 143 30 31 20 30 73 -3 104 -23 22 -28 23 -142
16 -156 -9 -344 -26 -365 -32 -10 -3 -18 -2 -18 3 0 5 73 33 162 63 224 76
256 101 207 164 -22 28 -23 29 -113 23 -54 -3 -140 -18 -209 -36 -83 -22 -138
-31 -185 -29 -42 1 -52 3 -27 5 124 11 185 41 185 93 0 32 -17 50 -47 50 -13
0 -50 9 -83 21 -68 23 -95 22 -237 -9 -76 -17 -101 -27 -148 -64 -158 -120
-188 -137 -238 -137 -47 -1 -194 38 -294 77 -28 12 -80 28 -115 37 -98 26
-248 103 -423 220 -88 59 -171 117 -185 129 -46 40 -135 95 -180 111 -24 8
-118 22 -209 30 -175 15 -270 38 -381 93 -57 28 -85 61 -160 193 -77 135 -311
344 -462 413 -111 51 -147 103 -208 302 -20 65 -34 137 -41 217 -11 130 -4
188 30 255 10 20 24 56 30 79 10 35 21 49 64 76 29 19 59 43 69 53 20 23 58
149 58 193 0 50 0 49 -246 14 -31 -5 -31 -4 -74 94 -70 161 -160 331 -185 352
-46 36 -281 52 -440 30z"/>
</g>
</svg>
